<svg width="21" height="20" viewBox="0 0 21 20" fill="none" xmlns="http://www.w3.org/2000/svg">
<g clipPath="url(#clip0_2_12)">
<path d="M15.75 4.75831C15.425 4.43331 14.9 4.43331 14.575 4.75831L10.5 8.82498L6.42501 4.74998C6.10001 4.42498 5.57501 4.42498 5.25001 4.74998C4.92501 5.07498 4.92501 5.59998 5.25001 5.92498L9.32501 9.99998L5.25001 14.075C4.92501 14.4 4.92501 14.925 5.25001 15.25C5.57501 15.575 6.10001 15.575 6.42501 15.25L10.5 11.175L14.575 15.25C14.9 15.575 15.425 15.575 15.75 15.25C16.075 14.925 16.075 14.4 15.75 14.075L11.675 9.99998L15.75 5.92498C16.0667 5.60831 16.0667 5.07498 15.75 4.75831V4.75831Z" fill="#F76659"/>
</g>
<defs>
<clipPath id="clip0_2_12">
<rect width="20" height="20" fill="white" transform="translate(0.5)"/>
</clipPath>
</defs>
</svg>
